<svg xmlns="http://www.w3.org/2000/svg" viewBox="0 0 40 40">
  
  <g transform="translate(5,4) scale(1)">
    <path d="M16.687 20.398c-0.039-0.077-0.069-0.137-0.1-0.195-0.377-0.724-1.286-1.194-2.094-1.083-0.693 0.095-1.271 0.671-1.474 1.486-0.218 0.878-0.061 1.723 0.255 2.546 0.515 1.342 1.33 2.489 2.335 3.504 0.694 0.702 1.248 0.69 1.932-0.025 0.949-0.991 1.719-2.105 2.253-3.374 0.315-0.748 0.548-1.518 0.582-2.335 0.026-0.591-0.050-1.159-0.386-1.666-0.427-0.644-1.129-0.833-1.82-0.494-0.43 0.212-0.769 0.527-1.037 0.918-0.154 0.225-0.288 0.462-0.446 0.719zM30.054 24.169c-0.015 1.106-0.265 2.159-0.774 3.138-0.865 1.661-2.114 2.948-3.788 3.811-1.65 0.85-3.341 0.948-5.068 0.271-0.96-0.366-1.647-0.66-2.324-0.973l0.24 0.1c-1.243-0.573-2.48-0.567-3.75-0.092-0.629 0.254-1.531 0.562-2.447 0.836l-0.266 0.068c-0.948 0.274-1.923 0.374-2.912 0.261-0.855-0.097-1.577-0.476-2.202-1.049-0.798-0.731-1.436-1.584-1.84-2.591-0.516-1.289-0.392-2.533 0.36-3.708 0.589-0.92 1.383-1.654 2.153-2.413 0.56-0.552 1.108-1.119 1.623-1.711 0.595-0.684 0.95-1.51 1.244-2.358 0.273-0.788 0.521-1.583 0.791-2.371 0.194-0.57 0.552-1.044 0.905-1.524 0.85-1.156 2.064-1.662 3.403-1.959 1.588-0.353 2.972 0.102 4.153 1.147 0.727 0.642 1.356 1.395 2.032 2.095 1.152 1.192 2.374 2.305 3.743 3.246 0.681 0.468 1.397 0.888 2.073 1.364 0.967 0.681 1.783 1.506 2.281 2.603 0.26 0.574 0.363 1.182 0.372 1.809zM14.463 7.77c0.002 0.885-0.154 1.841-0.574 2.739-0.449 0.961-1.098 1.721-2.166 2.016-0.879 0.244-1.69 0.047-2.447-0.425-0.995-0.622-1.668-1.524-2.169-2.561-0.726-1.506-1.007-3.1-0.858-4.766 0.088-0.984 0.366-1.903 0.916-2.74 0.948-1.442 2.652-1.85 4.134-0.972 0.961 0.569 1.634 1.401 2.146 2.372 0.698 1.324 1.030 2.739 1.019 4.336zM24.809 5.132c0.001 1.803-0.332 3.317-1.152 4.702-0.459 0.775-1.046 1.434-1.857 1.858-1.186 0.62-2.492 0.393-3.423-0.577-0.737-0.767-1.137-1.701-1.351-2.723-0.37-1.766-0.179-3.492 0.447-5.171 0.303-0.812 0.745-1.556 1.381-2.155 0.586-0.553 1.253-0.986 2.085-1.055 1.058-0.088 1.889 0.361 2.553 1.153 0.684 0.817 1.026 1.786 1.196 2.82 0.073 0.446 0.095 0.9 0.12 1.148zM0 13.828c0.015-0.806 0.169-1.563 0.647-2.22 0.626-0.858 1.502-1.175 2.537-1.111 1.047 0.066 1.939 0.518 2.74 1.157 1.426 1.137 2.369 2.588 2.745 4.385 0.166 0.794 0.178 1.596-0.1 2.37-0.478 1.33-1.568 2.018-2.989 1.908-0.884-0.068-1.662-0.422-2.375-0.925-1.539-1.085-2.53-2.559-3.031-4.361-0.108-0.387-0.118-0.801-0.174-1.202zM32.375 11.314c-0.238 2.502-1.255 4.437-3.23 5.83-0.516 0.367-1.143 0.612-1.823 0.678l-0.016 0.001c-1.138 0.115-2.174-0.526-2.602-1.623-0.376-0.964-0.354-1.951-0.118-2.934 0.455-1.89 1.471-3.417 3.068-4.535 0.707-0.496 1.509-0.698 2.371-0.626 1.002 0.084 1.85 0.836 2.143 1.942 0.119 0.447 0.152 0.916 0.207 1.267z"/>
  </g>

</svg>