<svg aria-hidden="true" style="position:absolute;width:0;height:0;overflow:hidden" xmlns="http://www.w3.org/2000/svg">
  <defs>
    <symbol id="icon-close" viewBox="0 0 32 32">
<title>close</title>
<path stroke-linejoin="miter" stroke-linecap="butt" stroke-miterlimit="4" stroke-width="1.3333" d="M23.467 7.9c0.219 0 0.355 0.064 0.461 0.172 0.108 0.108 0.174 0.258 0.174 0.423 0 0.013-0 0.026-0.001 0.039l0-0.002c0.001 0.012 0.001 0.026 0.001 0.040 0 0.165-0.067 0.315-0.175 0.423l-7.005 7.005 7.005 7.004c0.107 0.107 0.173 0.244 0.173 0.463 0.001 0.011 0.001 0.025 0.001 0.038 0 0.165-0.067 0.315-0.175 0.423l0-0c-0.108 0.108-0.258 0.175-0.423 0.175-0.013 0-0.027-0-0.040-0.001l0.002 0c-0.012 0.001-0.026 0.001-0.040 0.001-0.165 0-0.315-0.067-0.423-0.175l-7.004-7.005-7.005 7.005c-0.108 0.108-0.258 0.175-0.423 0.175-0.014 0-0.028-0-0.041-0.001l0.002 0c-0.011 0.001-0.024 0.001-0.037 0.001-0.165 0-0.315-0.067-0.423-0.174l0 0c-0.108-0.108-0.175-0.258-0.175-0.423 0-0.013 0-0.027 0.001-0.040l-0 0.002c0-0.22 0.067-0.356 0.173-0.463l7.004-7.004-7.005-7.005c-0.106-0.108-0.172-0.257-0.172-0.421 0-0.015 0.001-0.029 0.002-0.044l-0 0.002c-0.001-0.011-0.001-0.025-0.001-0.038 0-0.164 0.066-0.313 0.173-0.422l-0 0c0.108-0.108 0.258-0.174 0.423-0.174 0.013 0 0.026 0 0.039 0.001l-0.002-0c0.22 0 0.356 0.067 0.463 0.173l7.005 7.004 7.004-7.004c0.108-0.108 0.258-0.175 0.423-0.175 0.014 0 0.028 0 0.041 0.001l-0.002-0z"></path>
</symbol>

<symbol id="icon-add" viewBox="0 0 32 32">
<title>add</title>
<path d="M14.864 17.136h-7.261c-0.008 0-0.017 0-0.026 0-0.307 0-0.584-0.126-0.782-0.329l-0-0c-0.202-0.201-0.327-0.478-0.327-0.785 0-0.010 0-0.020 0-0.029l-0 0.001q0-0.48 0.327-0.805c0.2-0.2 0.476-0.323 0.781-0.323 0.009 0 0.019 0 0.028 0l-0.001-0h7.261v-7.263q0-0.48 0.329-0.811c0.199-0.206 0.478-0.334 0.786-0.334 0.009 0 0.019 0 0.028 0l-0.001-0c0.009-0 0.020-0 0.030-0 0.305 0 0.58 0.128 0.775 0.333l0 0c0.2 0.202 0.324 0.481 0.324 0.788 0 0.008-0 0.016-0 0.024l0-0.001v7.263h7.261c0.007-0 0.016-0 0.024-0 0.308 0 0.587 0.126 0.788 0.329l0 0c0.205 0.199 0.332 0.477 0.332 0.785 0 0.009-0 0.019-0 0.028l0-0.001c0 0.009 0 0.020 0 0.030 0 0.305-0.128 0.58-0.333 0.775l-0 0c-0.202 0.2-0.481 0.324-0.788 0.324-0.008 0-0.016-0-0.024-0l0.001 0h-7.261v7.261c0 0.008 0 0.017 0 0.026 0 0.307-0.126 0.584-0.329 0.782l-0 0c-0.201 0.203-0.479 0.328-0.787 0.328-0.009 0-0.019-0-0.028-0l0.001 0c-0.007 0-0.016 0-0.024 0-0.306 0-0.582-0.126-0.781-0.328l-0-0c-0.2-0.2-0.324-0.477-0.324-0.783 0-0.009 0-0.018 0-0.027l-0 0.001z"></path>
</symbol>

<symbol id="icon-burger" viewBox="0 0 32 32">
<title>burger</title>
<path d="M4.936 24.295c-0.008 0-0.017 0-0.026 0-0.307 0-0.584-0.126-0.782-0.329l-0-0c-0.202-0.203-0.327-0.482-0.327-0.791 0-0.010 0-0.020 0-0.031l-0 0.002q0-0.483 0.327-0.807c0.2-0.2 0.476-0.323 0.781-0.323 0.009 0 0.019 0 0.028 0l-0.001-0h22.128q0.48 0 0.813 0.329c0.204 0.201 0.331 0.48 0.331 0.789 0 0.008-0 0.016-0 0.024l0-0.001q0 0.493-0.332 0.813c-0.202 0.2-0.481 0.324-0.788 0.324-0.009 0-0.018-0-0.026-0l0.001 0zM4.936 17.135c-0.008 0-0.017 0-0.027 0-0.306 0-0.582-0.126-0.781-0.328l-0-0c-0.202-0.201-0.327-0.478-0.327-0.785 0-0.010 0-0.020 0-0.029l-0 0.001q0-0.483 0.327-0.805c0.2-0.2 0.477-0.324 0.783-0.324 0.009 0 0.018 0 0.027 0l-0.001-0h22.128q0.48 0 0.813 0.329c0.204 0.201 0.331 0.48 0.331 0.789 0 0.008-0 0.017-0 0.025l0-0.001c0 0.003 0 0.006 0 0.010 0 0.619-0.501 1.12-1.12 1.12-0.008 0-0.017-0-0.025-0l0.001 0zM4.936 9.984c-0.008 0-0.017 0-0.026 0-0.307 0-0.584-0.126-0.782-0.329l-0-0c-0.202-0.203-0.327-0.482-0.327-0.791 0-0.010 0-0.020 0-0.031l-0 0.002q0-0.483 0.327-0.807c0.2-0.2 0.476-0.323 0.781-0.323 0.009 0 0.019 0 0.028 0l-0.001-0h22.128q0.48 0 0.813 0.329c0.204 0.201 0.331 0.48 0.331 0.789 0 0.008-0 0.016-0 0.024l0-0.001q0 0.492-0.332 0.813c-0.202 0.2-0.481 0.324-0.788 0.324-0.009 0-0.018-0-0.026-0l0.001 0z"></path>
</symbol>

<symbol id="icon-facebook" viewBox="0 0 32 32">
<title>Facebook</title>
<path d="M29.333 16.405c0-7.409-5.97-13.415-13.333-13.415s-13.333 6.006-13.333 13.415c0 6.696 4.875 12.246 11.25 13.252v-9.374h-3.387v-3.878h3.386v-2.955c0-3.362 1.99-5.22 5.036-5.22 1.459 0 2.984 0.262 2.984 0.262v3.302h-1.68c-1.657 0-2.174 1.034-2.174 2.095v2.516h3.698l-0.59 3.878h-3.108v9.374c6.375-1.006 11.25-6.556 11.25-13.252z"></path>
</symbol>

<symbol id="icon-instagram" viewBox="0 0 32 32">
<title>Instagram</title>
<path d="M15.998 6.161c3.206 0 3.586 0.014 4.846 0.070 1.172 0.052 1.804 0.249 2.227 0.413 0.558 0.216 0.96 0.479 1.377 0.896 0.422 0.422 0.68 0.82 0.9 1.378 0.164 0.422 0.36 1.059 0.413 2.226 0.056 1.266 0.070 1.646 0.070 4.847s-0.014 3.585-0.070 4.846c-0.052 1.173-0.249 1.805-0.413 2.227-0.216 0.558-0.477 0.96-0.895 1.378-0.422 0.422-0.82 0.679-1.378 0.9-0.422 0.164-1.060 0.36-2.226 0.412-1.266 0.056-1.646 0.070-4.847 0.070s-3.585-0.014-4.846-0.070c-1.173-0.052-1.805-0.248-2.227-0.413-0.54-0.202-1.001-0.507-1.377-0.894l-0.001-0.001c-0.387-0.379-0.693-0.838-0.891-1.352l-0.009-0.026c-0.164-0.422-0.36-1.060-0.413-2.226-0.056-1.266-0.070-1.645-0.070-4.847 0-3.2 0.014-3.585 0.070-4.846 0.052-1.172 0.249-1.804 0.413-2.227 0.216-0.558 0.478-0.96 0.895-1.378 0.379-0.387 0.839-0.693 1.353-0.891l0.026-0.009c0.422-0.164 1.058-0.36 2.226-0.412 1.26-0.057 1.64-0.070 4.847-0.070zM15.998 4.002c-3.257 0-3.664 0.014-4.944 0.070-1.275 0.056-2.152 0.263-2.91 0.558-0.833 0.318-1.543 0.79-2.127 1.386l-0.001 0.001c-0.596 0.584-1.068 1.292-1.374 2.083l-0.014 0.040c-0.295 0.765-0.501 1.636-0.558 2.91-0.056 1.285-0.070 1.693-0.070 4.95s0.014 3.665 0.070 4.945c0.057 1.275 0.263 2.152 0.558 2.91 0.31 0.792 0.717 1.463 1.388 2.128 0.584 0.594 1.292 1.064 2.083 1.369l0.040 0.014c0.764 0.295 1.635 0.501 2.91 0.558 1.28 0.056 1.687 0.070 4.945 0.070s3.665-0.014 4.945-0.070c1.275-0.057 2.151-0.263 2.91-0.558 0.831-0.317 1.54-0.788 2.122-1.382l0.001-0.001c0.594-0.584 1.064-1.292 1.369-2.083l0.014-0.040c0.295-0.764 0.502-1.636 0.558-2.91 0.056-1.28 0.070-1.688 0.070-4.945s-0.014-3.665-0.070-4.945c-0.056-1.275-0.263-2.152-0.558-2.91-0.305-0.837-0.773-1.551-1.372-2.132l-0.001-0.001c-0.584-0.594-1.292-1.064-2.083-1.369l-0.040-0.014c-0.764-0.296-1.636-0.502-2.91-0.558-1.284-0.060-1.692-0.075-4.95-0.075z"></path>
<path d="M15.997 9.835c-0.001 0-0.001 0-0.002 0-3.405 0-6.165 2.76-6.165 6.165s2.76 6.165 6.165 6.165c3.405 0 6.165-2.76 6.165-6.165 0-0.001 0-0.001 0-0.002v0c-0.001-3.403-2.76-6.162-6.163-6.163h-0zM15.997 19.997c-2.208 0-3.998-1.79-3.998-3.998s1.79-3.998 3.998-3.998v0c2.208 0 3.998 1.79 3.998 3.998s-1.79 3.998-3.998 3.998v0zM23.842 9.592c0 0.795-0.644 1.439-1.439 1.439s-1.439-0.644-1.439-1.439v0c0-0.795 0.644-1.439 1.439-1.439s1.439 0.644 1.439 1.439v0z"></path>
</symbol>

<symbol id="icon-arrow_right" viewBox="0 0 32 32">
<title>arrow_right</title>
<path d="M22.54 17.136h-16.271c-0.010 0-0.022 0.001-0.034 0.001-0.608 0-1.101-0.493-1.101-1.101 0-0.012 0-0.025 0.001-0.037l-0 0.002c-0-0.011-0.001-0.023-0.001-0.035 0-0.608 0.493-1.101 1.101-1.101 0.012 0 0.024 0 0.036 0.001l-0.002-0h16.271l-7.336-7.335c-0.212-0.202-0.344-0.486-0.344-0.801v-0c-0-0.006-0-0.013-0-0.020 0-0.308 0.129-0.586 0.336-0.783l0-0c0.204-0.209 0.488-0.338 0.802-0.338 0.316 0 0.602 0.131 0.806 0.342l9.267 9.267c0.214 0.199 0.347 0.481 0.347 0.795 0 0.004-0 0.007-0 0.011v-0.001c0 0.005 0 0.010 0 0.016 0 0.311-0.133 0.591-0.346 0.786l-0.001 0.001-9.275 9.267c-0.203 0.213-0.489 0.345-0.805 0.347h-0c-0.002 0-0.003 0-0.005 0-0.313 0-0.594-0.134-0.789-0.349l-0.001-0.001c-0.209-0.199-0.339-0.48-0.339-0.791 0-0.001 0-0.003 0-0.004v0q0-0.453 0.339-0.795z"></path>
</symbol>

<symbol id="icon-arrow_left" viewBox="0 0 32 32">
<title>arrow_left</title>
<path d="M9.46 17.136l7.336 7.335q0.34 0.34 0.344 0.8c0 0.004 0 0.009 0 0.014 0 0.31-0.129 0.589-0.336 0.788l-0 0c-0.195 0.21-0.474 0.342-0.782 0.342-0.007 0-0.014-0-0.021-0l0.001 0c-0.316-0.001-0.602-0.132-0.805-0.344l-0-0-9.267-9.267c-0.214-0.199-0.347-0.481-0.347-0.795 0-0.004 0-0.007 0-0.011v0.001c-0-0.005-0-0.010-0-0.016 0-0.311 0.133-0.591 0.346-0.786l0.001-0.001 9.275-9.275c0.205-0.208 0.49-0.338 0.805-0.339h0q0.453 0 0.795 0.339c0.209 0.203 0.338 0.486 0.338 0.8s-0.129 0.597-0.338 0.8l-7.344 7.343h16.271c0.008-0 0.018-0 0.028-0 0.616 0 1.116 0.5 1.116 1.116 0 0.007-0 0.014-0 0.021l0-0.001c0 0.006 0 0.013 0 0.020 0 0.616-0.5 1.116-1.116 1.116-0.010 0-0.020-0-0.030-0l0.001 0z"></path>
</symbol>

<symbol id="icon-no-stars" viewBox="0 0 34 32">
<title>no-stars</title>
<path stroke-linejoin="miter" stroke-linecap="butt" stroke-miterlimit="4" stroke-width="3.3684" d="M16.856 1.686l3.416 8.115c0.494 1.141 1.565 1.947 2.836 2.051l0.012 0.001 8.856 0.701-6.73 5.696c-0.728 0.619-1.187 1.535-1.187 2.559 0 0.278 0.034 0.547 0.097 0.805l-0.005-0.023 2.060 8.532q-0.005 0-0.007 0.005l-0.013-0.007-7.594-4.581c-0.5-0.306-1.106-0.487-1.753-0.487s-1.253 0.181-1.768 0.495l0.015-0.009-7.608 4.588-0.008-0.005 2.061-8.532c0.059-0.235 0.093-0.505 0.093-0.783 0-0.941-0.388-1.791-1.012-2.4l-0.001-0.001-0.173-0.158-6.733-5.696 8.856-0.701c1.284-0.1 2.358-0.907 2.841-2.028l0.008-0.022 3.412-8.116 0.017-0.002z"></path>
</symbol>

<symbol id="icon-stars" viewBox="0 0 34 32">
<title>stars</title>
<path d="M15.276 1.031c0.581-1.374 2.552-1.374 3.133 0l3.416 8.118c0.244 0.578 0.797 0.975 1.43 1.024l8.869 0.702c1.502 0.12 2.112 1.972 0.967 2.941l-6.757 5.721c-0.362 0.308-0.591 0.764-0.591 1.273 0 0.137 0.016 0.27 0.048 0.397l-0.002-0.011 2.063 8.551c0.35 1.448-1.246 2.594-2.531 1.819l-7.592-4.583c-0.252-0.154-0.558-0.245-0.884-0.245s-0.632 0.091-0.892 0.249l0.008-0.004-7.592 4.581c-1.287 0.776-2.882-0.369-2.531-1.817l2.063-8.551c0.029-0.116 0.045-0.249 0.045-0.386 0-0.509-0.228-0.965-0.588-1.271l-0.002-0.002-6.757-5.721c-1.145-0.968-0.536-2.821 0.967-2.941l8.869-0.702c0.635-0.051 1.186-0.446 1.432-1.026z"></path>
</symbol>

<symbol id="icon-logotype" viewBox="0 0 96 32">
<title>logo-1</title>
<path d="M16.468 20.13l-0.099-0.192c-0.372-0.714-1.27-1.179-2.066-1.069-0.684 0.094-1.254 0.663-1.455 1.466-0.216 0.866-0.061 1.701 0.252 2.512 0.509 1.323 1.313 2.456 2.304 3.458 0.685 0.693 1.232 0.681 1.906-0.023 0.937-0.979 1.697-2.078 2.224-3.33 0.311-0.739 0.54-1.499 0.574-2.306 0.026-0.582-0.050-1.143-0.381-1.643-0.421-0.636-1.114-0.823-1.795-0.488-0.424 0.208-0.759 0.52-1.024 0.906-0.151 0.221-0.284 0.456-0.44 0.709zM29.66 23.852c-0.008 1.132-0.29 2.197-0.782 3.134l0.018-0.037c-0.853 1.64-2.086 2.91-3.738 3.762-1.629 0.839-3.297 0.936-5.002 0.267-0.692-0.272-1.382-0.552-2.057-0.863-1.226-0.565-2.448-0.56-3.702-0.090-0.88 0.329-1.773 0.631-2.677 0.892-0.621 0.192-1.335 0.303-2.075 0.303-0.281 0-0.559-0.016-0.832-0.047l0.033 0.003c-0.843-0.097-1.557-0.471-2.173-1.036-0.787-0.72-1.418-1.563-1.815-2.556-0.51-1.272-0.387-2.499 0.355-3.659 0.581-0.908 1.366-1.632 2.125-2.382 0.548-0.536 1.071-1.086 1.573-1.656l0.029-0.033c0.587-0.675 0.938-1.489 1.228-2.326 0.27-0.777 0.515-1.562 0.78-2.34 0.193-0.562 0.545-1.029 0.894-1.503 0.839-1.142 2.037-1.64 3.358-1.934 1.567-0.349 2.933 0.101 4.098 1.132 0.718 0.634 1.338 1.377 2.006 2.067 1.136 1.176 2.343 2.275 3.693 3.203 0.673 0.462 1.379 0.876 2.045 1.345 0.955 0.672 1.76 1.488 2.251 2.569 0.257 0.567 0.359 1.168 0.368 1.787zM14.274 7.668c0.003 0.873-0.152 1.816-0.566 2.704-0.443 0.948-1.085 1.698-2.138 1.989-0.867 0.24-1.669 0.047-2.415-0.419-0.982-0.614-1.647-1.503-2.141-2.527-0.56-1.126-0.887-2.453-0.887-3.856 0-0.298 0.015-0.593 0.044-0.883l-0.003 0.037c0.087-0.971 0.362-1.878 0.904-2.704 0.936-1.423 2.617-1.825 4.079-0.96 0.949 0.562 1.613 1.384 2.119 2.342 0.688 1.306 1.016 2.703 1.005 4.279zM24.483 5.065c0.002 1.78-0.327 3.273-1.136 4.64-0.453 0.765-1.032 1.415-1.834 1.834-1.169 0.611-2.458 0.387-3.376-0.569-0.727-0.757-1.122-1.678-1.334-2.687-0.365-1.744-0.176-3.447 0.441-5.103 0.298-0.802 0.735-1.536 1.363-2.128 0.578-0.545 1.237-0.973 2.058-1.041 1.044-0.086 1.864 0.356 2.519 1.138 0.675 0.807 1.013 1.763 1.181 2.783 0.073 0.44 0.094 0.888 0.119 1.133zM0 13.646c0.015-0.796 0.166-1.542 0.639-2.191 0.618-0.848 1.482-1.16 2.504-1.096 1.033 0.064 1.914 0.51 2.704 1.142 1.407 1.122 2.338 2.554 2.709 4.326 0.164 0.784 0.176 1.576-0.099 2.339-0.471 1.314-1.548 1.992-2.949 1.883-0.873-0.067-1.641-0.416-2.345-0.912-1.52-1.071-2.497-2.525-2.992-4.304-0.105-0.381-0.115-0.79-0.17-1.187zM31.951 11.165c-0.235 2.47-1.24 4.379-3.188 5.754-0.509 0.363-1.128 0.604-1.799 0.668l-0.015 0.001c-1.124 0.114-2.146-0.519-2.569-1.601-0.371-0.951-0.349-1.926-0.116-2.895 0.45-1.865 1.453-3.372 3.028-4.477 0.697-0.489 1.489-0.688 2.339-0.617 0.989 0.082 1.826 0.824 2.115 1.916 0.118 0.441 0.151 0.905 0.205 1.251zM78.269 19.356h2.273l-2.997 3.627 3.261 3.938h-2.34l-3.093-3.837v3.837h-2.064v-7.564h2.064v3.674zM71.883 23.125q0 0.947-0.257 1.678c-0.161 0.482-0.413 0.896-0.739 1.24l0.001-0.001q-0.48 0.501-1.164 0.758-0.675 0.257-1.529 0.257c-0.013 0-0.029 0-0.045 0-0.511 0-1-0.094-1.451-0.266l0.028 0.009c-0.452-0.177-0.838-0.434-1.157-0.757l-0-0c-0.325-0.345-0.583-0.757-0.75-1.214l-0.008-0.025q-0.264-0.731-0.264-1.678 0-1.258 0.446-2.131c0.284-0.566 0.721-1.020 1.256-1.318l0.016-0.008q0.826-0.454 1.969-0.453 1.062 0 1.881 0.453 0.825 0.453 1.292 1.326 0.474 0.873 0.474 2.131zM66.653 23.125q0 0.744 0.162 1.251 0.163 0.509 0.508 0.765 0.346 0.258 0.899 0.258 0.549 0 0.886-0.258 0.346-0.256 0.502-0.765 0.161-0.506 0.162-1.251 0-0.751-0.163-1.245-0.156-0.5-0.501-0.751t-0.899-0.25q-0.819 0-1.191 0.562-0.365 0.56-0.365 1.684zM63.12 19.356v7.565h-2.070v-6.015h-2.74v6.015h-2.064v-7.565zM51.246 19.2q1.522 0 2.334 0.664 0.812 0.663 0.812 2.015v5.041h-1.441l-0.4-1.029h-0.054q-0.325 0.407-0.663 0.663c-0.221 0.168-0.481 0.298-0.763 0.375l-0.016 0.004q-0.439 0.122-1.069 0.122-0.669 0-1.204-0.257c-0.355-0.174-0.64-0.444-0.828-0.776l-0.005-0.009q-0.304-0.535-0.304-1.353 0-1.204 0.846-1.773 0.846-0.574 2.538-0.636l1.312-0.041v-0.33q0-0.597-0.311-0.873t-0.865-0.277q-0.549 0-1.077 0.156c-0.421 0.126-0.771 0.26-1.109 0.414l0.054-0.022-0.683-1.393c0.387-0.205 0.835-0.377 1.306-0.492l0.040-0.008c0.462-0.116 0.992-0.183 1.538-0.183 0.004 0 0.008 0 0.011 0h-0.001zM52.342 23.418l-0.798 0.026q-1.002 0.029-1.393 0.359-0.386 0.332-0.386 0.873 0 0.473 0.277 0.676 0.277 0.196 0.725 0.196 0.663 0 1.116-0.393 0.46-0.393 0.46-1.116zM46.090 26.921h-2.090v-8.146h-2.422l-0.176 1.387q-0.095 0.752-0.196 1.515t-0.216 1.455q-0.109 0.69-0.216 1.211-0.176 0.867-0.481 1.475-0.297 0.602-0.819 0.92-0.514 0.317-1.346 0.317c-0.357-0-0.702-0.055-1.026-0.155l0.025 0.007v-1.718q0.176 0.061 0.352 0.101 0.176 0.035 0.385 0.035c0.006 0 0.013 0 0.020 0 0.167 0 0.318-0.068 0.428-0.177v0q0.182-0.182 0.324-0.616 0.143-0.439 0.285-1.211 0.061-0.337 0.163-0.954 0.101-0.623 0.23-1.455 0.128-0.839 0.264-1.827 0.142-0.988 0.271-2.057h6.244zM92.566 6.533q1.523 0 2.334 0.662t0.812 2.016v5.040h-1.441l-0.4-1.028h-0.054c-0.196 0.249-0.414 0.467-0.655 0.657l-0.008 0.006c-0.221 0.168-0.481 0.298-0.763 0.375l-0.016 0.004q-0.439 0.121-1.069 0.121-0.669 0-1.204-0.256c-0.354-0.174-0.639-0.444-0.827-0.776l-0.005-0.009q-0.304-0.534-0.304-1.353 0-1.205 0.846-1.773 0.845-0.575 2.537-0.636l1.313-0.041v-0.332q0-0.595-0.311-0.873t-0.866-0.277q-0.548 0-1.076 0.156c-0.421 0.126-0.772 0.26-1.11 0.414l0.054-0.022-0.683-1.393c0.387-0.206 0.835-0.378 1.306-0.493l0.040-0.008c0.461-0.115 0.99-0.182 1.535-0.182 0.005 0 0.010 0 0.015 0h-0.001zM93.662 10.748l-0.798 0.027q-1.001 0.028-1.394 0.359-0.386 0.332-0.386 0.873 0 0.472 0.278 0.676 0.278 0.195 0.724 0.195 0.662 0 1.117-0.392 0.459-0.393 0.46-1.117zM86.124 6.688h2.274l-2.998 3.627 3.261 3.937h-2.341l-3.092-3.836v3.836h-2.064v-7.564h2.064v3.674zM74.333 6.688v2.909h2.882v-2.909h2.064v7.564h-2.063v-3.119h-2.882v3.119h-2.065v-7.564zM64.555 6.688v2.991q0 0.23-0.021 0.582-0.013 0.345-0.041 0.703c-0.035 0.471-0.069 0.825-0.109 1.178l0.013-0.149 3.491-5.305h2.483v7.564h-1.995v-3.018q0-0.372 0.027-0.818 0.026-0.453 0.061-0.853t0.048-0.602l-3.477 5.29h-2.477v-7.564zM61.423 8.238h-2.476v6.014h-2.064v-6.014h-2.482v-1.55h7.023zM50.165 6.533q1.522 0 2.334 0.662t0.811 2.016v5.040h-1.441l-0.4-1.028h-0.054q-0.324 0.406-0.663 0.663-0.337 0.257-0.778 0.379-0.438 0.121-1.069 0.121-0.669 0-1.204-0.256c-0.354-0.174-0.639-0.444-0.827-0.776l-0.005-0.009q-0.304-0.534-0.304-1.353 0-1.205 0.846-1.773 0.846-0.575 2.537-0.636l1.313-0.041v-0.332q0-0.595-0.311-0.873t-0.866-0.277q-0.548 0-1.076 0.156t-1.055 0.392l-0.683-1.393c0.386-0.206 0.835-0.378 1.305-0.493l0.040-0.008c0.461-0.115 0.99-0.182 1.535-0.182 0.005 0 0.011 0 0.016 0h-0.001zM51.261 10.748l-0.798 0.027q-1.002 0.028-1.394 0.359-0.386 0.332-0.386 0.873 0 0.472 0.278 0.676 0.278 0.195 0.724 0.195 0.663 0 1.116-0.392 0.461-0.393 0.461-1.117zM46.26 14.253h-2.394l-2.301-3.742-2.301 3.741h-2.246l3.281-5.101-3.071-4.79h2.313l2.131 3.559 2.091-3.559h2.26l-3.106 4.905z"></path>
</symbol>

  </defs>
</svg>
